<?xml version="1.0" encoding="UTF-8" standalone="no"?>
<!-- Created with Inkscape (http://www.inkscape.org/) -->

<svg
   xmlns:dc="http://purl.org/dc/elements/1.1/"
   xmlns:cc="http://creativecommons.org/ns#"
   xmlns:rdf="http://www.w3.org/1999/02/22-rdf-syntax-ns#"
   xmlns:svg="http://www.w3.org/2000/svg"
   xmlns="http://www.w3.org/2000/svg"
   xmlns:sodipodi="http://sodipodi.sourceforge.net/DTD/sodipodi-0.dtd"
   xmlns:inkscape="http://www.inkscape.org/namespaces/inkscape"
   width="16px"
   height="16px"
   id="svg4644"
   version="1.1"
   inkscape:version="0.48.0 r9654"
   sodipodi:docname="phone.svg"
   inkscape:export-filename="C:\Users\Evan\SkyDrive\Documents\retro\website\phone.png"
   inkscape:export-xdpi="90"
   inkscape:export-ydpi="90">
  <defs
     id="defs4646" />
  <sodipodi:namedview
     id="base"
     pagecolor="#ffffff"
     bordercolor="#666666"
     borderopacity="1.0"
     inkscape:pageopacity="0.0"
     inkscape:pageshadow="2"
     inkscape:zoom="1.485"
     inkscape:cx="40.262264"
     inkscape:cy="-12.913263"
     inkscape:current-layer="layer1"
     showgrid="true"
     inkscape:grid-bbox="true"
     inkscape:document-units="px"
     showguides="true"
     inkscape:guide-bbox="true"
     inkscape:window-width="1301"
     inkscape:window-height="746"
     inkscape:window-x="57"
     inkscape:window-y="-8"
     inkscape:window-maximized="1" />
  <metadata
     id="metadata4649">
    <rdf:RDF>
      <cc:Work
         rdf:about="">
        <dc:format>image/svg+xml</dc:format>
        <dc:type
           rdf:resource="http://purl.org/dc/dcmitype/StillImage" />
        <dc:title></dc:title>
      </cc:Work>
    </rdf:RDF>
  </metadata>
  <g
     id="layer1"
     inkscape:label="Layer 1"
     inkscape:groupmode="layer">
    <g
       id="g5230"
       transform="matrix(0.02397271,0,0,0.02397271,5.0906494,3.1364112)">
      <path
         sodipodi:nodetypes="ccccccccc"
         inkscape:connector-curvature="0"
         id="path4716"
         d="M 33.333333,-115.37255 38.485759,70.443967 C 30.925049,70.414515 5.3814226,74.295353 5.3814226,140.08759 L 127.62273,366.79433 c 5.65759,21.11442 64.56795,9.33839 66.49492,2.14685 l 147.05882,114.72735 c 0,14.75579 -71.2528,44.86904 -107.78588,44.86904 -108.16865,0 -338.68614,-152.20531 -338.68614,-525.9195654 0,-55.1279366 62.170822,-117.9905546 138.628883,-117.9905546 z"
         style="fill:#800000;fill-opacity:1;stroke:none" />
      <path
         sodipodi:nodetypes="ccccc"
         inkscape:connector-curvature="0"
         id="path4718"
         d="m 49.019608,-117.33333 5.882353,187.004433 c 32.432278,0 48.289679,-32.560469 48.289679,-32.560469 0,-36.1083416 -1.50279,-111.056035 -1.50279,-126.534994 -1.22527,-4.57279 -22.201264,-27.90897 -52.669242,-27.90897 z"
         style="fill:#800000;fill-opacity:1;stroke:none" />
      <path
         sodipodi:nodetypes="ccccc"
         inkscape:connector-curvature="0"
         id="path4720"
         d="m 207.84314,353.75584 149.74954,120.83869 c 4.49889,-19.84059 23.11473,-45.50716 8.88792,-59.51051 L 264.66295,335.33591 c -13.60029,-8.87749 -37.88354,12.26896 -56.81981,18.41993 z"
         style="fill:#800000;fill-opacity:1;stroke:none" />
    </g>
  </g>
</svg>
