<?xml version="1.0" encoding="UTF-8" standalone="no"?>
<svg
   xmlns:dc="http://purl.org/dc/elements/1.1/"
   xmlns:cc="http://creativecommons.org/ns#"
   xmlns:rdf="http://www.w3.org/1999/02/22-rdf-syntax-ns#"
   xmlns:svg="http://www.w3.org/2000/svg"
   xmlns="http://www.w3.org/2000/svg"
   xmlns:sodipodi="http://sodipodi.sourceforge.net/DTD/sodipodi-0.dtd"
   xmlns:inkscape="http://www.inkscape.org/namespaces/inkscape"
   version="1.1"
   x="0px"
   y="0px"
   width="400px"
   height="400px"
   viewBox="0 0 400 400"
   enable-background="new 0 0 400 400"
   xml:space="preserve"
   id="svg4673"
   inkscape:version="0.48.0 r9654"
   sodipodi:docname="twitter.svg"
   inkscape:export-filename="C:\Users\Evan\SkyDrive\Documents\retro\website\twitter.png"
   inkscape:export-xdpi="3.5999999"
   inkscape:export-ydpi="3.5999999"><metadata
   id="metadata4681"><rdf:RDF><cc:Work
       rdf:about=""><dc:format>image/svg+xml</dc:format><dc:type
         rdf:resource="http://purl.org/dc/dcmitype/StillImage" /><dc:title></dc:title></cc:Work></rdf:RDF></metadata><defs
   id="defs4679" /><sodipodi:namedview
   pagecolor="#ffffff"
   bordercolor="#666666"
   borderopacity="1"
   objecttolerance="10"
   gridtolerance="10"
   guidetolerance="10"
   inkscape:pageopacity="0"
   inkscape:pageshadow="2"
   inkscape:window-width="1301"
   inkscape:window-height="746"
   id="namedview4677"
   showgrid="false"
   inkscape:zoom="0.7275"
   inkscape:cx="34.736541"
   inkscape:cy="200"
   inkscape:window-x="57"
   inkscape:window-y="-8"
   inkscape:window-maximized="1"
   inkscape:current-layer="svg4673" />
<path
   d="m 0.5,262.094 c 0,0 52.172,79.049 158.323,77.241 68.433,-2.031 165.549,-32.296 191.523,-132.123 0,0 27.893,4.742 47.654,-16.939 -26.99,3.727 -44.944,-4.743 -44.944,-4.743 0,0 35.346,-1.017 43.137,-21.908 -20.89,9.035 -46.751,1.355 -46.751,1.355 0,0 -12.197,-74.757 -86.503,-77.467 -45.83374,4.146449 -71.82,29.21561 -71.82,75.322 0,0 -9.411,-10.427 -25.07,-21.72 C 128.257,118.829 58.544,92.479 58.544,92.479 c 0,36.9068 18.110932,156.05672 88.533,163.516 0,42.41029 -146.577,6.099 -146.577,6.099 z"
   id="path4675"
   style="fill:#800000"
   inkscape:connector-curvature="0"
   sodipodi:nodetypes="ccccccccccccc" />
</svg>