<?xml version="1.0" encoding="UTF-8" standalone="no"?>
<!-- Created with Inkscape (http://www.inkscape.org/) -->

<svg
   xmlns:dc="http://purl.org/dc/elements/1.1/"
   xmlns:cc="http://creativecommons.org/ns#"
   xmlns:rdf="http://www.w3.org/1999/02/22-rdf-syntax-ns#"
   xmlns:svg="http://www.w3.org/2000/svg"
   xmlns="http://www.w3.org/2000/svg"
   xmlns:sodipodi="http://sodipodi.sourceforge.net/DTD/sodipodi-0.dtd"
   xmlns:inkscape="http://www.inkscape.org/namespaces/inkscape"
   width="69.299339mm"
   height="57.133205mm"
   viewBox="0 0 245.54884 202.44049"
   id="svg3722"
   version="1.1"
   inkscape:version="0.91 r13725"
   sodipodi:docname="twitter.svg">
  <defs
     id="defs3724" />
  <sodipodi:namedview
     id="base"
     pagecolor="#ffffff"
     bordercolor="#666666"
     borderopacity="1.0"
     inkscape:pageopacity="0.0"
     inkscape:pageshadow="2"
     inkscape:zoom="3.959798"
     inkscape:cx="54.177217"
     inkscape:cy="96.523829"
     inkscape:document-units="px"
     inkscape:current-layer="layer1"
     showgrid="false"
     fit-margin-top="0"
     fit-margin-left="0"
     fit-margin-right="0"
     fit-margin-bottom="0"
     inkscape:window-width="1920"
     inkscape:window-height="1057"
     inkscape:window-x="131"
     inkscape:window-y="-8"
     inkscape:window-maximized="1" />
  <metadata
     id="metadata3727">
    <rdf:RDF>
      <cc:Work
         rdf:about="">
        <dc:format>image/svg+xml</dc:format>
        <dc:type
           rdf:resource="http://purl.org/dc/dcmitype/StillImage" />
        <dc:title></dc:title>
      </cc:Work>
    </rdf:RDF>
  </metadata>
  <g
     inkscape:label="Layer 1"
     inkscape:groupmode="layer"
     id="layer1"
     transform="translate(-263.36328,-342.74917)">
    <path
       style="opacity:1;fill:#800000;fill-opacity:1;fill-rule:evenodd;stroke:none;stroke-width:1px;stroke-linecap:butt;stroke-linejoin:miter;stroke-opacity:1"
       d="m 435.90234,342.76367 c -0.88153,-0.0207 -1.76258,-0.0197 -2.64257,0.006 -16.7617,0.26556 -33.54209,9.08179 -42.11719,23.69141 -7.05868,11.69882 -8.53041,25.83492 -6.69922,39.12695 -25.32427,-1.9649 -50.5987,-9.00643 -72.05274,-22.88281 -12.8605,-8.21164 -23.13713,-18.70218 -32.97686,-30.33916 -5.92517,11.39494 -12.68939,25.62914 -8.97098,38.26025 3.49104,12.37578 15.00917,22.0344 24.75253,30.10235 -7.49595,-0.14106 -14.95465,-1.83166 -21.61914,-5.31055 -1.1908,-0.61965 -2.65366,-1.58872 -2.13476,0.45898 0.0854,13.97768 6.65041,27.68009 17.4082,36.61328 6.92066,5.96224 15.50216,10.01405 24.54492,11.72266 0.92703,0.42382 -2.31686,0.98977 -3.30859,1.25781 -6.70896,1.52358 -13.65618,1.31871 -20.44727,0.53711 4.45358,12.86351 14.09341,24.04051 26.67383,29.53125 6.90093,3.09787 14.39181,4.81289 21.93164,4.74805 -14.19023,11.12371 -31.03863,19.15374 -49.00195,21.57617 -8.56193,1.24906 -17.24393,1.4051 -25.87891,1.10156 26.22344,15.12261 56.74032,23.92624 87.13086,21.94922 31.87227,-1.82428 62.71753,-15.6376 86.01563,-37.39453 30.77977,-28.36607 49.05506,-69.96097 48.42187,-111.82617 0.16107,-1.54214 -0.73636,-3.55301 1.10938,-4.29883 8.62762,-6.89655 16.74366,-14.6285 22.87109,-23.87891 -9.24389,3.99113 -19.19277,6.11871 -29.1582,7.29883 6.23262,-4.48725 12.58954,-8.95859 16.75781,-15.49804 2.53336,-3.75108 4.5078,-7.89434 6.08203,-12.10547 -9.83898,5.61234 -20.60333,9.49581 -31.71094,11.67187 -8.51921,-10.30665 -21.7575,-15.80849 -34.98047,-16.11914 z m 0.37081,8.91669 c 12.84197,0.29882 19.65333,7.59108 27.38049,18.03475 8.47489,-1.56082 24.8944,-11.27021 32.81364,-14.68494 -7.19841,10.79637 -20.61138,21.75663 -30.66757,29.45058 9.14431,-1.0672 15.8186,-2.74252 24.84571,-4.61435 2.44453,-0.41512 7.19469,-2.30748 2.97266,0.99609 -3.93116,5.56545 -13.05436,6.62101 -15.76328,13.05499 2.0881,54.04929 -26.91874,92.35267 -74.89952,117.75542 -38.29234,21.03749 -77.74574,34.51118 -116.76839,16.01635 21.69989,-1.18596 45.55047,-14.299 62.55468,-27.72849 2.50948,-1.39046 8.12969,-5.26949 3.65625,-7.76563 -18.90514,1.39006 -45.68395,-2.01258 -54.06208,-19.64552 5.24535,0.33855 8.98252,-0.49294 14.1332,-1.37559 4.46317,0.25822 16.8056,-9.81995 11.91912,-12.51269 -19.64843,-3.18005 -45.05739,-18.56178 -47.38533,-38.81992 9.66424,4.03966 29.6955,14.19055 39.50095,1.66534 -5.83854,-4.90126 -9.4882,-1.90703 -14.69464,-7.50267 -13.1525,-12.60435 -31.04286,-40.29471 -23.52836,-57.08473 27.27907,31.51542 80.01523,60.75274 121.24301,62.37258 -1.14121,-7.00416 -9.36542,-21.41127 -8.60229,-28.4928 1.22281,-23.11987 19.77476,-39.26742 42.78534,-39.1051 0.85433,-0.029 1.71028,-0.0336 2.56641,-0.0137 z"
       id="path4283"
       inkscape:connector-curvature="0"
       sodipodi:nodetypes="sccccccccccccccccccccccccccssccccccccccccccccccccscc" />
  </g>
</svg>
