<?xml version="1.0" encoding="UTF-8" standalone="no"?>
<!DOCTYPE svg PUBLIC "-//W3C//DTD SVG 1.1//EN" "http://www.w3.org/Graphics/SVG/1.1/DTD/svg11.dtd">
<svg width="100%" height="100%" viewBox="0 0 301 250" version="1.1" xmlns="http://www.w3.org/2000/svg" xmlns:xlink="http://www.w3.org/1999/xlink" xml:space="preserve" xmlns:serif="http://www.serif.com/" style="fill-rule:evenodd;clip-rule:evenodd;stroke-linejoin:round;stroke-miterlimit:1.5;">
    <g transform="matrix(1,0,0,1,-315,0)">
        <g id="Intel-Sequential" serif:id="Intel Sequential" transform="matrix(0.375,0,0,0.416667,315.471,0)">
            <rect x="0" y="0" width="800" height="600" style="fill:white;"/>
            <clipPath id="_clip1">
                <rect x="0" y="0" width="800" height="600"/>
            </clipPath>
            <g clip-path="url(#_clip1)">
                <g transform="matrix(-2.66667,0,0,2.4,888.889,60.3282)">
                    <path d="M33.333,75L300,75L299.271,100L100,99.726L100,124.726L33.333,125L33.333,75Z" style="fill:rgb(24,255,54);"/>
                </g>
                <g transform="matrix(7.77156e-16,-1.65788,1.84209,1.22125e-15,62.0562,118.278)">
                    <text x="10.24px" y="12.5px" style="font-family:'BitstreamVeraSansMono-Roman', 'Bitstream Vera Sans Mono', monospace;font-size:13.177px;">Bit</text>
                </g>
                <g transform="matrix(1.84209,0,-7.77156e-16,1.65788,-15.3029,94.7324)">
                    <text x="10.24px" y="12.5px" style="font-family:'BitstreamVeraSansMono-Roman', 'Bitstream Vera Sans Mono', monospace;font-size:13.177px;">Byte</text>
                </g>
                <g transform="matrix(2.66003,0,0,4.32525,1.99163,-48.1313)">
                    <path d="M300,25L-0.749,25L-0.749,150L300,150L300,25ZM298.998,25.555L298.998,149.445C298.998,149.445 0.254,149.445 0.254,149.445C0.254,149.445 0.254,25.555 0.254,25.555C18.528,25.555 280.723,25.555 298.998,25.555L298.998,25.555Z"/>
                </g>
                <g transform="matrix(1.86556,0,0,1.67901,-12.9787,10.1018)">
                    <text x="53.186px" y="25px" style="font-family:'BitstreamVeraSansMono-Roman', 'Bitstream Vera Sans Mono', monospace;font-size:34.901px;">Intel Sequential</text>
                </g>
                <g transform="matrix(2.66667,0,0,2.4,622.339,240.328)">
                    <text x="46.73px" y="11.208px" style="font-family:'BitstreamVeraSansMono-Roman', 'Bitstream Vera Sans Mono', monospace;font-size:11px;">0</text>
                    <text x="33.485px" y="22.208px" style="font-family:'BitstreamVeraSansMono-Roman', 'Bitstream Vera Sans Mono', monospace;font-size:11px;">(lsb)</text>
                </g>
                <g transform="matrix(2.66667,0,0,2.4,622,299.672)">
                    <text x="46.73px" y="16.708px" style="font-family:'BitstreamVeraSansMono-Roman', 'Bitstream Vera Sans Mono', monospace;font-size:11px;">8</text>
                </g>
                <g transform="matrix(2.66667,0,0,2.4,-2.27374e-13,239.672)">
                    <text x="46.73px" y="16.708px" style="font-family:'BitstreamVeraSansMono-Roman', 'Bitstream Vera Sans Mono', monospace;font-size:11px;">7</text>
                </g>
                <g transform="matrix(2.66667,0,0,2.4,89.3326,240.328)">
                    <text x="46.73px" y="16.708px" style="font-family:'BitstreamVeraSansMono-Roman', 'Bitstream Vera Sans Mono', monospace;font-size:11px;">6</text>
                </g>
                <g transform="matrix(2.66667,0,0,2.4,176.447,239.672)">
                    <text x="46.73px" y="16.708px" style="font-family:'BitstreamVeraSansMono-Roman', 'Bitstream Vera Sans Mono', monospace;font-size:11px;">5</text>
                </g>
                <g transform="matrix(2.66667,0,0,2.4,265.557,239.672)">
                    <text x="46.73px" y="16.708px" style="font-family:'BitstreamVeraSansMono-Roman', 'Bitstream Vera Sans Mono', monospace;font-size:11px;">4</text>
                </g>
                <g transform="matrix(2.66667,0,0,2.4,355.666,239.672)">
                    <text x="46.73px" y="16.708px" style="font-family:'BitstreamVeraSansMono-Roman', 'Bitstream Vera Sans Mono', monospace;font-size:11px;">3</text>
                </g>
                <g transform="matrix(2.66667,0,0,2.4,443.779,239.672)">
                    <text x="46.73px" y="16.708px" style="font-family:'BitstreamVeraSansMono-Roman', 'Bitstream Vera Sans Mono', monospace;font-size:11px;">2</text>
                </g>
                <g transform="matrix(2.66667,0,0,2.4,533.229,239.672)">
                    <text x="46.73px" y="16.708px" style="font-family:'BitstreamVeraSansMono-Roman', 'Bitstream Vera Sans Mono', monospace;font-size:11px;">1</text>
                </g>
                <g transform="matrix(2.66667,0,0,2.4,533.229,299.672)">
                    <text x="46.73px" y="11.208px" style="font-family:'BitstreamVeraSansMono-Roman', 'Bitstream Vera Sans Mono', monospace;font-size:11px;">9</text>
                    <text x="33.485px" y="22.208px" style="font-family:'BitstreamVeraSansMono-Roman', 'Bitstream Vera Sans Mono', monospace;font-size:11px;">(msb)</text>
                </g>
                <g id="Gridlines" transform="matrix(1,0,0,0.9,0,60)">
                    <g transform="matrix(2.66667,0,0,2.66667,32.2453,4.35207e-14)">
                        <path d="M54.575,0L54.575,225" style="fill:none;stroke:rgb(121,121,121);stroke-width:0.5px;"/>
                    </g>
                    <g transform="matrix(2.66667,0,0,2.66667,121.134,8.04607e-14)">
                        <path d="M54.575,0L54.575,225" style="fill:none;stroke:rgb(121,121,121);stroke-width:0.5px;"/>
                    </g>
                    <g transform="matrix(2.66667,0,0,2.66667,210.023,6.62498e-14)">
                        <path d="M54.575,0L54.575,225" style="fill:none;stroke:rgb(121,121,121);stroke-width:0.5px;"/>
                    </g>
                    <g transform="matrix(2.66667,0,0,2.66667,298.912,8.79297e-14)">
                        <path d="M54.575,0L54.575,225" style="fill:none;stroke:rgb(121,121,121);stroke-width:0.5px;"/>
                    </g>
                    <g transform="matrix(2.66667,0,0,2.66667,387.801,2.39808e-13)">
                        <path d="M54.575,0L54.575,225" style="fill:none;stroke:rgb(121,121,121);stroke-width:0.5px;"/>
                    </g>
                    <g transform="matrix(2.66667,0,0,2.66667,476.69,2.25153e-13)">
                        <path d="M54.575,0L54.575,225" style="fill:none;stroke:rgb(121,121,121);stroke-width:0.5px;"/>
                    </g>
                    <g transform="matrix(2.64951,0,0,2.66667,566.515,-4.96517e-16)">
                        <path d="M54.575,0L54.575,225" style="fill:none;stroke:rgb(121,121,121);stroke-width:0.5px;"/>
                    </g>
                    <g transform="matrix(2.66667,-5.51023e-05,-6.1661e-06,0.295637,-56.7933,0.00300719)">
                        <path d="M54.575,0L54.631,225.502" style="fill:none;stroke:rgb(121,121,121);stroke-width:0.7px;"/>
                    </g>
                    <g transform="matrix(2.66667,0,0,2.66667,0,0)">
                        <path d="M33.333,25L0,25" style="fill:none;stroke:rgb(120,120,120);stroke-width:0.5px;"/>
                    </g>
                    <g transform="matrix(24.0004,0,0,24.0004,1.51582e-13,-466.767)">
                        <path d="M33.333,25L0,25" style="fill:none;stroke:rgb(120,120,120);stroke-width:0.06px;"/>
                    </g>
                    <g transform="matrix(24.0004,0,0,24.0004,1.51582e-13,-400.192)">
                        <path d="M33.333,25L0,25" style="fill:none;stroke:rgb(120,120,120);stroke-width:0.06px;"/>
                    </g>
                    <g transform="matrix(24.0004,0,0,24.0004,1.51582e-13,-267.041)">
                        <path d="M33.333,25L0,25" style="fill:none;stroke:rgb(120,120,120);stroke-width:0.06px;"/>
                    </g>
                    <g transform="matrix(24.0004,0,0,24.0004,-8.54872e-14,-333.616)">
                        <path d="M33.333,25L0,25" style="fill:none;stroke:rgb(120,120,120);stroke-width:0.06px;"/>
                    </g>
                    <g transform="matrix(2.66667,0,0,2.75281,14.5912,-20.112)">
                        <path d="M27.862,31.524L27.862,225" style="fill:none;stroke:black;stroke-width:0.98px;"/>
                    </g>
                    <g transform="matrix(2.61305,0,0,2.66667,16.0851,18.4406)">
                        <path d="M27.862,18.085L300,18.085" style="fill:none;stroke:black;stroke-width:1.01px;"/>
                    </g>
                    <g transform="matrix(2.61178,-0.0411667,-0.0411667,2.63579,2.8588,2.1441)">
                        <path d="M33.333,25L0,0" style="fill:none;stroke:black;stroke-width:1.03px;"/>
                    </g>
                    <g transform="matrix(24.0004,0,0,24.0004,0.221844,-67.3142)">
                        <path d="M33.333,25L0,25" style="fill:none;stroke:rgb(120,120,120);stroke-width:0.06px;"/>
                    </g>
                    <g transform="matrix(24.0004,0,0,24.0004,1.51582e-13,-200.465)">
                        <path d="M33.333,25L0,25" style="fill:none;stroke:rgb(120,120,120);stroke-width:0.06px;"/>
                    </g>
                    <g transform="matrix(24.0004,0,0,24.0004,0.221844,-133.89)">
                        <path d="M33.333,25L0,25" style="fill:none;stroke:rgb(120,120,120);stroke-width:0.06px;"/>
                    </g>
                </g>
                <g id="Byte-Numbers" serif:id="Byte Numbers" transform="matrix(1,0,0,0.5,0,60)">
                    <g transform="matrix(2.66667,0,0,4.8,-90.8855,120)">
                        <text x="46.429px" y="17.091px" style="font-family:'BitstreamVeraSansMono-Roman', 'Bitstream Vera Sans Mono', monospace;font-size:12px;">0</text>
                    </g>
                    <g transform="matrix(2.66667,0,0,4.8,-88.8889,240)">
                        <text x="46.429px" y="17.091px" style="font-family:'BitstreamVeraSansMono-Roman', 'Bitstream Vera Sans Mono', monospace;font-size:12px;">1</text>
                    </g>
                    <g transform="matrix(2.66667,0,0,4.8,-88.8889,360)">
                        <text x="46.429px" y="17.091px" style="font-family:'BitstreamVeraSansMono-Roman', 'Bitstream Vera Sans Mono', monospace;font-size:12px;">2</text>
                    </g>
                    <g transform="matrix(2.66667,0,0,4.8,-88.8889,480)">
                        <text x="46.429px" y="17.091px" style="font-family:'BitstreamVeraSansMono-Roman', 'Bitstream Vera Sans Mono', monospace;font-size:12px;">3</text>
                    </g>
                    <g transform="matrix(2.66667,0,0,4.8,-90.8855,600)">
                        <text x="46.429px" y="17.091px" style="font-family:'BitstreamVeraSansMono-Roman', 'Bitstream Vera Sans Mono', monospace;font-size:12px;">4</text>
                    </g>
                    <g transform="matrix(2.66667,0,0,4.8,-88.8889,720)">
                        <text x="46.429px" y="17.091px" style="font-family:'BitstreamVeraSansMono-Roman', 'Bitstream Vera Sans Mono', monospace;font-size:12px;">5</text>
                    </g>
                    <g transform="matrix(2.66667,0,0,4.8,-88.8889,840)">
                        <text x="46.429px" y="17.091px" style="font-family:'BitstreamVeraSansMono-Roman', 'Bitstream Vera Sans Mono', monospace;font-size:12px;">6</text>
                    </g>
                    <g transform="matrix(2.66667,0,0,4.8,-88.8889,960)">
                        <text x="46.429px" y="17.091px" style="font-family:'BitstreamVeraSansMono-Roman', 'Bitstream Vera Sans Mono', monospace;font-size:12px;">7</text>
                    </g>
                </g>
                <g id="Bit-Numbers" serif:id="Bit Numbers" transform="matrix(1,0,0,0.5,0,60)">
                    <g transform="matrix(2.66667,0,0,4.8,622,0)">
                        <text x="46.429px" y="17.091px" style="font-family:'BitstreamVeraSansMono-Roman', 'Bitstream Vera Sans Mono', monospace;font-size:12px;">7</text>
                    </g>
                    <g transform="matrix(2.66667,0,0,4.8,532.89,0)">
                        <text x="46.429px" y="17.091px" style="font-family:'BitstreamVeraSansMono-Roman', 'Bitstream Vera Sans Mono', monospace;font-size:12px;">6</text>
                    </g>
                    <g transform="matrix(2.66667,0,0,4.8,443.779,0)">
                        <text x="46.429px" y="17.091px" style="font-family:'BitstreamVeraSansMono-Roman', 'Bitstream Vera Sans Mono', monospace;font-size:12px;">5</text>
                    </g>
                    <g transform="matrix(2.66667,0,0,4.8,354.668,0)">
                        <text x="46.429px" y="17.091px" style="font-family:'BitstreamVeraSansMono-Roman', 'Bitstream Vera Sans Mono', monospace;font-size:12px;">4</text>
                    </g>
                    <g transform="matrix(2.66667,0,0,4.8,265.557,0)">
                        <text x="46.429px" y="17.091px" style="font-family:'BitstreamVeraSansMono-Roman', 'Bitstream Vera Sans Mono', monospace;font-size:12px;">3</text>
                    </g>
                    <g transform="matrix(2.66667,0,0,4.8,176.447,0)">
                        <text x="46.429px" y="17.091px" style="font-family:'BitstreamVeraSansMono-Roman', 'Bitstream Vera Sans Mono', monospace;font-size:12px;">2</text>
                    </g>
                    <g transform="matrix(2.66667,0,0,4.8,87.336,0)">
                        <text x="46.429px" y="17.091px" style="font-family:'BitstreamVeraSansMono-Roman', 'Bitstream Vera Sans Mono', monospace;font-size:12px;">1</text>
                    </g>
                    <g transform="matrix(2.66667,0,0,4.8,-1.77475,0)">
                        <text x="46.429px" y="17.091px" style="font-family:'BitstreamVeraSansMono-Roman', 'Bitstream Vera Sans Mono', monospace;font-size:12px;">0</text>
                    </g>
                </g>
            </g>
        </g>
    </g>
</svg>
